STARTFONT 2.1
FONT screen.r.14
SIZE 14 80 80
FONTBOUNDINGBOX 8 11 0 -5
STARTPROPERTIES 4
FONT_ASCENT 11
FONT_DESCENT 5
DEFAULT_CHAR 32
COPYRIGHT "Derived from a vfont"
ENDPROPERTIES
CHARS 95
STARTCHAR H20
ENCODING 32
SWIDTH 514 0
DWIDTH 8 0
BBX 8 16 0 -5
BITMAP
00
00
00
00
00
00
00
00
00
00
00
00
00
00
00
00
ENDCHAR
STARTCHAR H21
ENCODING 33
SWIDTH 514 0
DWIDTH 8 0
BBX 8 16 0 -5
BITMAP
00
00
10
10
10
10
10
10
10
00
00
10
00
00
00
00
ENDCHAR
STARTCHAR H22
ENCODING 34
SWIDTH 514 0
DWIDTH 8 0
BBX 8 16 0 -5
BITMAP
00
00
24
24
24
24
00
00
00
00
00
00
00
00
00
00
ENDCHAR
STARTCHAR H23
ENCODING 35
SWIDTH 514 0
DWIDTH 8 0
BBX 8 16 0 -5
BITMAP
00
00
12
12
12
7f
24
24
fe
48
48
48
00
00
00
00
ENDCHAR
STARTCHAR H24
ENCODING 36
SWIDTH 514 0
DWIDTH 8 0
BBX 8 16 0 -5
BITMAP
00
10
38
54
54
50
30
18
14
54
54
38
10
00
00
00
ENDCHAR
STARTCHAR H25
ENCODING 37
SWIDTH 514 0
DWIDTH 8 0
BBX 8 16 0 -5
BITMAP
00
00
64
94
98
68
10
10
2c
32
52
4c
00
00
00
00
ENDCHAR
STARTCHAR H26
ENCODING 38
SWIDTH 514 0
DWIDTH 8 0
BBX 8 16 0 -5
BITMAP
00
00
30
48
48
30
20
52
8c
88
98
66
00
00
00
00
ENDCHAR
STARTCHAR H27
ENCODING 39
SWIDTH 514 0
DWIDTH 8 0
BBX 8 16 0 -5
BITMAP
00
00
08
08
10
20
00
00
00
00
00
00
00
00
00
00
ENDCHAR
STARTCHAR H28
ENCODING 40
SWIDTH 514 0
DWIDTH 8 0
BBX 8 16 0 -5
BITMAP
00
04
08
10
10
20
20
20
20
20
10
10
08
04
00
00
ENDCHAR
STARTCHAR H29
ENCODING 41
SWIDTH 514 0
DWIDTH 8 0
BBX 8 16 0 -5
BITMAP
00
20
10
08
08
04
04
04
04
04
08
08
10
20
00
00
ENDCHAR
STARTCHAR H2a
ENCODING 42
SWIDTH 514 0
DWIDTH 8 0
BBX 8 16 0 -5
BITMAP
00
00
00
10
54
38
38
54
10
00
00
00
00
00
00
00
ENDCHAR
STARTCHAR H2b
ENCODING 43
SWIDTH 514 0
DWIDTH 8 0
BBX 8 16 0 -5
BITMAP
00
00
00
00
10
10
10
fe
10
10
10
00
00
00
00
00
ENDCHAR
STARTCHAR H2c
ENCODING 44
SWIDTH 514 0
DWIDTH 8 0
BBX 8 16 0 -5
BITMAP
00
00
00
00
00
00
00
00
00
00
18
18
08
10
20
00
ENDCHAR
STARTCHAR H2d
ENCODING 45
SWIDTH 514 0
DWIDTH 8 0
BBX 8 16 0 -5
BITMAP
00
00
00
00
00
00
00
7e
00
00
00
00
00
00
00
00
ENDCHAR
STARTCHAR H2e
ENCODING 46
SWIDTH 514 0
DWIDTH 8 0
BBX 8 16 0 -5
BITMAP
00
00
00
00
00
00
00
00
00
00
18
18
00
00
00
00
ENDCHAR
STARTCHAR H2f
ENCODING 47
SWIDTH 514 0
DWIDTH 8 0
BBX 8 16 0 -5
BITMAP
00
02
04
04
08
08
10
10
20
20
40
40
80
00
00
00
ENDCHAR
STARTCHAR H30
ENCODING 48
SWIDTH 514 0
DWIDTH 8 0
BBX 8 16 0 -5
BITMAP
00
00
3c
42
42
46
4a
52
62
42
42
3c
00
00
00
00
ENDCHAR
STARTCHAR H31
ENCODING 49
SWIDTH 514 0
DWIDTH 8 0
BBX 8 16 0 -5
BITMAP
00
00
08
18
28
08
08
08
08
08
08
3e
00
00
00
00
ENDCHAR
STARTCHAR H32
ENCODING 50
SWIDTH 514 0
DWIDTH 8 0
BBX 8 16 0 -5
BITMAP
00
00
3c
42
42
02
04
08
10
20
40
7e
00
00
00
00
ENDCHAR
STARTCHAR H33
ENCODING 51
SWIDTH 514 0
DWIDTH 8 0
BBX 8 16 0 -5
BITMAP
00
00
3c
42
42
02
1c
02
02
42
42
3c
00
00
00
00
ENDCHAR
STARTCHAR H34
ENCODING 52
SWIDTH 514 0
DWIDTH 8 0
BBX 8 16 0 -5
BITMAP
00
00
04
0c
14
24
44
84
fe
04
04
04
00
00
00
00
ENDCHAR
STARTCHAR H35
ENCODING 53
SWIDTH 514 0
DWIDTH 8 0
BBX 8 16 0 -5
BITMAP
00
00
7e
40
40
40
7c
02
02
42
42
3c
00
00
00
00
ENDCHAR
STARTCHAR H36
ENCODING 54
SWIDTH 514 0
DWIDTH 8 0
BBX 8 16 0 -5
BITMAP
00
00
3c
42
40
40
7c
42
42
42
42
3c
00
00
00
00
ENDCHAR
STARTCHAR H37
ENCODING 55
SWIDTH 514 0
DWIDTH 8 0
BBX 8 16 0 -5
BITMAP
00
00
7e
42
02
04
04
08
08
10
10
10
00
00
00
00
ENDCHAR
STARTCHAR H38
ENCODING 56
SWIDTH 514 0
DWIDTH 8 0
BBX 8 16 0 -5
BITMAP
00
00
3c
42
42
42
3c
42
42
42
42
3c
00
00
00
00
ENDCHAR
STARTCHAR H39
ENCODING 57
SWIDTH 514 0
DWIDTH 8 0
BBX 8 16 0 -5
BITMAP
00
00
3c
42
42
42
42
3e
02
02
42
3c
00
00
00
00
ENDCHAR
STARTCHAR H3a
ENCODING 58
SWIDTH 514 0
DWIDTH 8 0
BBX 8 16 0 -5
BITMAP
00
00
00
00
00
18
18
00
00
00
18
18
00
00
00
00
ENDCHAR
STARTCHAR H3b
ENCODING 59
SWIDTH 514 0
DWIDTH 8 0
BBX 8 16 0 -5
BITMAP
00
00
00
00
00
18
18
00
00
00
18
18
08
10
20
00
ENDCHAR
STARTCHAR H3c
ENCODING 60
SWIDTH 514 0
DWIDTH 8 0
BBX 8 16 0 -5
BITMAP
00
02
04
08
10
20
40
20
10
08
04
02
00
00
00
00
ENDCHAR
STARTCHAR H3d
ENCODING 61
SWIDTH 514 0
DWIDTH 8 0
BBX 8 16 0 -5
BITMAP
00
00
00
00
00
7e
00
00
00
7e
00
00
00
00
00
00
ENDCHAR
STARTCHAR H3e
ENCODING 62
SWIDTH 514 0
DWIDTH 8 0
BBX 8 16 0 -5
BITMAP
00
40
20
10
08
04
02
04
08
10
20
40
00
00
00
00
ENDCHAR
STARTCHAR H3f
ENCODING 63
SWIDTH 514 0
DWIDTH 8 0
BBX 8 16 0 -5
BITMAP
00
00
3c
42
42
02
04
08
08
00
00
08
00
00
00
00
ENDCHAR
STARTCHAR H40
ENCODING 64
SWIDTH 514 0
DWIDTH 8 0
BBX 8 16 0 -5
BITMAP
00
00
18
24
42
4e
52
52
4c
40
22
1c
00
00
00
00
ENDCHAR
STARTCHAR H41
ENCODING 65
SWIDTH 514 0
DWIDTH 8 0
BBX 8 16 0 -5
BITMAP
00
00
18
18
18
24
24
24
42
7e
42
42
00
00
00
00
ENDCHAR
STARTCHAR H42
ENCODING 66
SWIDTH 514 0
DWIDTH 8 0
BBX 8 16 0 -5
BITMAP
00
00
78
44
44
44
78
44
42
42
42
7c
00
00
00
00
ENDCHAR
STARTCHAR H43
ENCODING 67
SWIDTH 514 0
DWIDTH 8 0
BBX 8 16 0 -5
BITMAP
00
00
3c
42
42
40
40
40
40
42
42
3c
00
00
00
00
ENDCHAR
STARTCHAR H44
ENCODING 68
SWIDTH 514 0
DWIDTH 8 0
BBX 8 16 0 -5
BITMAP
00
00
78
44
42
42
42
42
42
42
44
78
00
00
00
00
ENDCHAR
STARTCHAR H45
ENCODING 69
SWIDTH 514 0
DWIDTH 8 0
BBX 8 16 0 -5
BITMAP
00
00
7e
40
40
40
7c
40
40
40
40
7e
00
00
00
00
ENDCHAR
STARTCHAR H46
ENCODING 70
SWIDTH 514 0
DWIDTH 8 0
BBX 8 16 0 -5
BITMAP
00
00
7e
40
40
40
7c
40
40
40
40
40
00
00
00
00
ENDCHAR
STARTCHAR H47
ENCODING 71
SWIDTH 514 0
DWIDTH 8 0
BBX 8 16 0 -5
BITMAP
00
00
3c
42
42
40
40
4e
42
42
46
3a
00
00
00
00
ENDCHAR
STARTCHAR H48
ENCODING 72
SWIDTH 514 0
DWIDTH 8 0
BBX 8 16 0 -5
BITMAP
00
00
42
42
42
42
7e
42
42
42
42
42
00
00
00
00
ENDCHAR
STARTCHAR H49
ENCODING 73
SWIDTH 514 0
DWIDTH 8 0
BBX 8 16 0 -5
BITMAP
00
00
7c
10
10
10
10
10
10
10
10
7c
00
00
00
00
ENDCHAR
STARTCHAR H4a
ENCODING 74
SWIDTH 514 0
DWIDTH 8 0
BBX 8 16 0 -5
BITMAP
00
00
1e
04
04
04
04
04
04
44
44
38
00
00
00
00
ENDCHAR
STARTCHAR H4b
ENCODING 75
SWIDTH 514 0
DWIDTH 8 0
BBX 8 16 0 -5
BITMAP
00
00
42
44
48
50
60
70
58
4c
46
42
00
00
00
00
ENDCHAR
STARTCHAR H4c
ENCODING 76
SWIDTH 514 0
DWIDTH 8 0
BBX 8 16 0 -5
BITMAP
00
00
40
40
40
40
40
40
40
40
40
7e
00
00
00
00
ENDCHAR
STARTCHAR H4d
ENCODING 77
SWIDTH 514 0
DWIDTH 8 0
BBX 8 16 0 -5
BITMAP
00
00
82
82
c6
c6
aa
aa
92
92
82
82
00
00
00
00
ENDCHAR
STARTCHAR H4e
ENCODING 78
SWIDTH 514 0
DWIDTH 8 0
BBX 8 16 0 -5
BITMAP
00
00
42
62
62
52
52
4a
4a
46
46
42
00
00
00
00
ENDCHAR
STARTCHAR H4f
ENCODING 79
SWIDTH 514 0
DWIDTH 8 0
BBX 8 16 0 -5
BITMAP
00
00
3c
42
42
42
42
42
42
42
42
3c
00
00
00
00
ENDCHAR
STARTCHAR H50
ENCODING 80
SWIDTH 514 0
DWIDTH 8 0
BBX 8 16 0 -5
BITMAP
00
00
7c
42
42
42
42
7c
40
40
40
40
00
00
00
00
ENDCHAR
STARTCHAR H51
ENCODING 81
SWIDTH 514 0
DWIDTH 8 0
BBX 8 16 0 -5
BITMAP
00
00
3c
42
42
42
42
42
42
42
42
3c
10
08
06
00
ENDCHAR
STARTCHAR H52
ENCODING 82
SWIDTH 514 0
DWIDTH 8 0
BBX 8 16 0 -5
BITMAP
00
00
7c
42
42
42
7c
48
44
44
42
42
00
00
00
00
ENDCHAR
STARTCHAR H53
ENCODING 83
SWIDTH 514 0
DWIDTH 8 0
BBX 8 16 0 -5
BITMAP
00
00
3c
42
42
20
18
04
02
42
42
3c
00
00
00
00
ENDCHAR
STARTCHAR H54
ENCODING 84
SWIDTH 514 0
DWIDTH 8 0
BBX 8 16 0 -5
BITMAP
00
00
fe
10
10
10
10
10
10
10
10
10
00
00
00
00
ENDCHAR
STARTCHAR H55
ENCODING 85
SWIDTH 514 0
DWIDTH 8 0
BBX 8 16 0 -5
BITMAP
00
00
42
42
42
42
42
42
42
42
42
3c
00
00
00
00
ENDCHAR
STARTCHAR H56
ENCODING 86
SWIDTH 514 0
DWIDTH 8 0
BBX 8 16 0 -5
BITMAP
00
00
42
42
42
42
24
24
24
18
18
18
00
00
00
00
ENDCHAR
STARTCHAR H57
ENCODING 87
SWIDTH 514 0
DWIDTH 8 0
BBX 8 16 0 -5
BITMAP
00
00
82
82
82
92
54
54
54
28
28
28
00
00
00
00
ENDCHAR
STARTCHAR H58
ENCODING 88
SWIDTH 514 0
DWIDTH 8 0
BBX 8 16 0 -5
BITMAP
00
00
42
42
24
24
18
18
24
24
42
42
00
00
00
00
ENDCHAR
STARTCHAR H59
ENCODING 89
SWIDTH 514 0
DWIDTH 8 0
BBX 8 16 0 -5
BITMAP
00
00
82
82
44
44
28
10
10
10
10
10
00
00
00
00
ENDCHAR
STARTCHAR H5a
ENCODING 90
SWIDTH 514 0
DWIDTH 8 0
BBX 8 16 0 -5
BITMAP
00
00
7e
02
02
04
08
10
20
40
40
7e
00
00
00
00
ENDCHAR
STARTCHAR H5b
ENCODING 91
SWIDTH 514 0
DWIDTH 8 0
BBX 8 16 0 -5
BITMAP
00
3c
20
20
20
20
20
20
20
20
20
20
20
3c
00
00
ENDCHAR
STARTCHAR H5c
ENCODING 92
SWIDTH 514 0
DWIDTH 8 0
BBX 8 16 0 -5
BITMAP
00
80
40
40
20
20
10
10
08
08
04
04
02
00
00
00
ENDCHAR
STARTCHAR H5d
ENCODING 93
SWIDTH 514 0
DWIDTH 8 0
BBX 8 16 0 -5
BITMAP
00
3c
04
04
04
04
04
04
04
04
04
04
04
3c
00
00
ENDCHAR
STARTCHAR H5e
ENCODING 94
SWIDTH 514 0
DWIDTH 8 0
BBX 8 16 0 -5
BITMAP
00
00
00
18
24
42
00
00
00
00
00
00
00
00
00
00
ENDCHAR
STARTCHAR H5f
ENCODING 95
SWIDTH 514 0
DWIDTH 8 0
BBX 8 16 0 -5
BITMAP
00
00
00
00
00
00
00
00
00
00
00
00
fe
00
00
00
ENDCHAR
STARTCHAR H60
ENCODING 96
SWIDTH 514 0
DWIDTH 8 0
BBX 8 16 0 -5
BITMAP
00
00
20
20
10
08
00
00
00
00
00
00
00
00
00
00
ENDCHAR
STARTCHAR H61
ENCODING 97
SWIDTH 514 0
DWIDTH 8 0
BBX 8 16 0 -5
BITMAP
00
00
00
00
00
38
44
04
3c
44
44
3a
00
00
00
00
ENDCHAR
STARTCHAR H62
ENCODING 98
SWIDTH 514 0
DWIDTH 8 0
BBX 8 16 0 -5
BITMAP
00
00
40
40
40
5c
62
42
42
42
62
5c
00
00
00
00
ENDCHAR
STARTCHAR H63
ENCODING 99
SWIDTH 514 0
DWIDTH 8 0
BBX 8 16 0 -5
BITMAP
00
00
00
00
00
3c
42
40
40
40
42
3c
00
00
00
00
ENDCHAR
STARTCHAR H64
ENCODING 100
SWIDTH 514 0
DWIDTH 8 0
BBX 8 16 0 -5
BITMAP
00
00
02
02
02
3a
46
42
42
42
46
3a
00
00
00
00
ENDCHAR
STARTCHAR H65
ENCODING 101
SWIDTH 514 0
DWIDTH 8 0
BBX 8 16 0 -5
BITMAP
00
00
00
00
00
3c
42
42
7e
40
42
3c
00
00
00
00
ENDCHAR
STARTCHAR H66
ENCODING 102
SWIDTH 514 0
DWIDTH 8 0
BBX 8 16 0 -5
BITMAP
00
00
0c
12
10
10
7c
10
10
10
10
10
00
00
00
00
ENDCHAR
STARTCHAR H67
ENCODING 103
SWIDTH 514 0
DWIDTH 8 0
BBX 8 16 0 -5
BITMAP
00
00
00
00
00
3a
46
42
42
42
46
3a
02
42
3c
00
ENDCHAR
STARTCHAR H68
ENCODING 104
SWIDTH 514 0
DWIDTH 8 0
BBX 8 16 0 -5
BITMAP
00
00
40
40
40
5c
62
42
42
42
42
42
00
00
00
00
ENDCHAR
STARTCHAR H69
ENCODING 105
SWIDTH 514 0
DWIDTH 8 0
BBX 8 16 0 -5
BITMAP
00
00
08
08
00
38
08
08
08
08
08
08
00
00
00
00
ENDCHAR
STARTCHAR H6a
ENCODING 106
SWIDTH 514 0
DWIDTH 8 0
BBX 8 16 0 -5
BITMAP
00
00
04
04
00
1c
04
04
04
04
04
04
04
44
38
00
ENDCHAR
STARTCHAR H6b
ENCODING 107
SWIDTH 514 0
DWIDTH 8 0
BBX 8 16 0 -5
BITMAP
00
00
40
40
40
44
48
50
70
48
44
42
00
00
00
00
ENDCHAR
STARTCHAR H6c
ENCODING 108
SWIDTH 514 0
DWIDTH 8 0
BBX 8 16 0 -5
BITMAP
00
00
38
08
08
08
08
08
08
08
08
08
00
00
00
00
ENDCHAR
STARTCHAR H6d
ENCODING 109
SWIDTH 514 0
DWIDTH 8 0
BBX 8 16 0 -5
BITMAP
00
00
00
00
00
ec
92
92
92
92
92
92
00
00
00
00
ENDCHAR
STARTCHAR H6e
ENCODING 110
SWIDTH 514 0
DWIDTH 8 0
BBX 8 16 0 -5
BITMAP
00
00
00
00
00
5c
62
42
42
42
42
42
00
00
00
00
ENDCHAR
STARTCHAR H6f
ENCODING 111
SWIDTH 514 0
DWIDTH 8 0
BBX 8 16 0 -5
BITMAP
00
00
00
00
00
3c
42
42
42
42
42
3c
00
00
00
00
ENDCHAR
STARTCHAR H70
ENCODING 112
SWIDTH 514 0
DWIDTH 8 0
BBX 8 16 0 -5
BITMAP
00
00
00
00
00
5c
62
42
42
42
62
5c
40
40
40
40
ENDCHAR
STARTCHAR H71
ENCODING 113
SWIDTH 514 0
DWIDTH 8 0
BBX 8 16 0 -5
BITMAP
00
00
00
00
00
3a
46
42
42
42
46
3a
02
02
02
02
ENDCHAR
STARTCHAR H72
ENCODING 114
SWIDTH 514 0
DWIDTH 8 0
BBX 8 16 0 -5
BITMAP
00
00
00
00
00
5c
62
40
40
40
40
40
00
00
00
00
ENDCHAR
STARTCHAR H73
ENCODING 115
SWIDTH 514 0
DWIDTH 8 0
BBX 8 16 0 -5
BITMAP
00
00
00
00
00
3c
42
40
3c
02
42
3c
00
00
00
00
ENDCHAR
STARTCHAR H74
ENCODING 116
SWIDTH 514 0
DWIDTH 8 0
BBX 8 16 0 -5
BITMAP
00
00
10
10
10
7c
10
10
10
10
12
0c
00
00
00
00
ENDCHAR
STARTCHAR H75
ENCODING 117
SWIDTH 514 0
DWIDTH 8 0
BBX 8 16 0 -5
BITMAP
00
00
00
00
00
42
42
42
42
42
46
3a
00
00
00
00
ENDCHAR
STARTCHAR H76
ENCODING 118
SWIDTH 514 0
DWIDTH 8 0
BBX 8 16 0 -5
BITMAP
00
00
00
00
00
42
42
42
24
24
18
18
00
00
00
00
ENDCHAR
STARTCHAR H77
ENCODING 119
SWIDTH 514 0
DWIDTH 8 0
BBX 8 16 0 -5
BITMAP
00
00
00
00
00
82
82
92
92
92
92
6c
00
00
00
00
ENDCHAR
STARTCHAR H78
ENCODING 120
SWIDTH 514 0
DWIDTH 8 0
BBX 8 16 0 -5
BITMAP
00
00
00
00
00
42
42
24
18
24
42
42
00
00
00
00
ENDCHAR
STARTCHAR H79
ENCODING 121
SWIDTH 514 0
DWIDTH 8 0
BBX 8 16 0 -5
BITMAP
00
00
00
00
00
42
42
22
24
14
14
08
08
10
50
20
ENDCHAR
STARTCHAR H7a
ENCODING 122
SWIDTH 514 0
DWIDTH 8 0
BBX 8 16 0 -5
BITMAP
00
00
00
00
00
7e
04
08
10
20
40
7e
00
00
00
00
ENDCHAR
STARTCHAR H7b
ENCODING 123
SWIDTH 514 0
DWIDTH 8 0
BBX 8 16 0 -5
BITMAP
00
0e
10
10
10
10
10
60
10
10
10
10
10
0e
00
00
ENDCHAR
STARTCHAR H7c
ENCODING 124
SWIDTH 514 0
DWIDTH 8 0
BBX 8 16 0 -5
BITMAP
00
10
10
10
10
10
10
00
10
10
10
10
10
10
00
00
ENDCHAR
STARTCHAR H7d
ENCODING 125
SWIDTH 514 0
DWIDTH 8 0
BBX 8 16 0 -5
BITMAP
00
70
08
08
08
08
08
06
08
08
08
08
08
70
00
00
ENDCHAR
STARTCHAR H7e
ENCODING 126
SWIDTH 514 0
DWIDTH 8 0
BBX 8 16 0 -5
BITMAP
00
00
00
32
5a
4c
00
00
00
00
00
00
00
00
00
00
ENDCHAR
ENDFONT
